<svg width="24" height="24" viewBox="0 0 24 24" fill="none" xmlns="http://www.w3.org/2000/svg">
<path d="M16.3394 15.4905C15.8759 15.3443 15.2841 14.9633 14.6219 14.3003C14.0534 13.7438 13.4669 13.0268 12.8669 12.2453C12.7229 12.4365 12.5796 12.6278 12.4356 12.8228C12.0434 13.3538 11.6421 13.89 11.2334 14.4173C12.6614 16.1498 14.1434 17.8508 16.3409 18.1313V20.1563L22.0071 16.8863L16.3401 13.614V15.4905H16.3394ZM6.89389 8.95053C7.46089 9.50553 8.04739 10.2225 8.64889 11.004C8.79439 10.8075 8.94139 10.614 9.08839 10.413C9.48021 9.8809 9.87824 9.35337 10.2824 8.83053C8.75839 6.98253 7.18264 5.15028 4.73539 5.06253H2.11039V7.68753H4.73539C5.22664 7.66728 5.99689 8.05128 6.89389 8.94978V8.95053ZM16.3394 7.75578V9.65778L22.0064 6.38553L16.3394 3.11328V5.09853C14.9114 5.26353 13.7706 6.10953 12.7769 7.08153C11.1291 8.71953 9.68914 10.9575 8.26789 12.7365C6.86764 14.5643 5.46289 15.6518 4.73389 15.564H2.10889V18.189H4.73389C6.37264 18.1665 7.64389 17.2395 8.73889 16.1693C10.3844 14.5313 11.8259 12.294 13.2464 10.5158C14.4036 9.00303 15.5594 8.01078 16.3394 7.75578Z" fill="#C4C4C4"/>
</svg>
